<?xml version="1.0" encoding="UTF-8" standalone="no"?>
<!-- Created with Inkscape (http://www.inkscape.org/) -->
<!--
    Created by Nathan Dumont (nathan.dumont@gmail.com)
    This image is int eh Public Domain
-->
<svg
   xmlns:dc="http://purl.org/dc/elements/1.1/"
   xmlns:cc="http://creativecommons.org/ns#"
   xmlns:rdf="http://www.w3.org/1999/02/22-rdf-syntax-ns#"
   xmlns:svg="http://www.w3.org/2000/svg"
   xmlns="http://www.w3.org/2000/svg"
   xmlns:sodipodi="http://sodipodi.sourceforge.net/DTD/sodipodi-0.dtd"
   xmlns:inkscape="http://www.inkscape.org/namespaces/inkscape"
   version="1.0"
   id="svg2"
   sodipodi:version="0.32"
   inkscape:version="0.46dev+devel"
   width="404.44995"
   height="345.03683"
   sodipodi:docname="hairymnstr_Octopus_ok.svg"
   inkscape:output_extension="org.inkscape.output.svg.inkscape">
  <sodipodi:namedview
     inkscape:window-height="643"
     inkscape:window-width="640"
     inkscape:pageshadow="2"
     inkscape:pageopacity="0.0"
     guidetolerance="10.0"
     gridtolerance="10.0"
     objecttolerance="10.0"
     borderopacity="1.0"
     bordercolor="#666666"
     pagecolor="#ffffff"
     id="base"
     showgrid="false"
     inkscape:zoom="0.41050506"
     inkscape:cx="372.04724"
     inkscape:cy="526.18109"
     inkscape:window-x="66"
     inkscape:window-y="87"
     inkscape:current-layer="svg2" />
  <metadata
     id="metadata11">
    <rdf:RDF>
      <cc:Work
         rdf:about="">
        <dc:format>image/svg+xml</dc:format>
        <dc:type
           rdf:resource="http://purl.org/dc/dcmitype/StillImage" />
        <cc:license
           rdf:resource="http://web.resource.org/cc/PublicDomain" />
      </cc:Work>
      <cc:License
         rdf:about="http://web.resource.org/cc/PublicDomain">
        <cc:permits
           rdf:resource="http://web.resource.org/cc/Reproduction" />
        <cc:permits
           rdf:resource="http://web.resource.org/cc/Distribution" />
        <cc:permits
           rdf:resource="http://web.resource.org/cc/DerivativeWorks" />
      </cc:License>
    </rdf:RDF>
  </metadata>
  <defs
     id="defs4" />
  <g
     id="layer1"
     transform="translate(-37.83899,-205.43507)">
    <path
       d="M 226.19124,355.93124 C 222.27858,327.32699 206.29154,301.44627 203.91857,272.33423 C 200.46683,246.65392 211.37681,214.11208 239.3386,207.64919 C 260.28489,201.12103 287.12329,209.03521 294.67002,231.30576 C 301.90916,252.29181 294.72058,274.67375 292.99509,296.02373 C 289.79004,320.0624 281.89443,343.1659 271.45887,364.92628 C 268.81159,387.68973 300.21971,388.82806 316.08934,390.53163 C 348.81526,391.40309 383.77208,392.9256 413.68938,377.59216 C 428.73227,370.3388 438.22992,350.92326 430.18445,335.37487 C 419.63276,325.61068 398.25358,357.4094 396.54627,344.31917 C 404.48446,327.29071 435.18939,314.29476 441.87436,338.40618 C 445.69817,365.04402 422.45139,387.55629 397.68644,392.22286 C 359.85899,403.99416 318.65708,402.76186 281.29438,389.89496 C 263.77803,381.6643 261.08119,399.49095 275.05917,406.9666 C 296.59118,427.67112 326.76051,432.64509 353.87502,442.33584 C 370.72317,446.58198 392.53485,454.26026 408.0474,442.87933 C 420.26468,426.10458 408.93701,402.52073 396.78261,388.45837 C 390.84693,379.7896 375.90292,361.88535 379.00626,359.07565 C 382.25092,356.55266 411.91662,394.19691 420.89764,415.89798 C 426.81704,434.30585 414.26981,458.1122 392.98805,456.27938 C 354.73955,456.86104 319.5941,438.99237 284.83604,425.25358 C 270.17337,413.63104 260.874,428.12976 271.27262,441.03022 C 278.29613,458.2929 284.46478,478.61784 303.3787,486.39925 C 325.12192,497.44509 350.12993,503.16544 374.18047,496.79624 C 393.40339,492.64033 418.12374,489.54025 427.85381,470.00207 C 432.03266,461.21023 442.91246,452.48179 436.00512,470.13484 C 423.92394,493.64373 395.19123,499.2022 371.8657,505.00354 C 342.16146,509.17975 308.95842,503.89102 285.36108,484.35631 C 270.69347,472.04715 269.40345,451.30365 258.0751,437.15059 C 237.29472,432.86605 251.53183,465.04015 252.21466,477.05762 C 256.90191,500.57208 270.89869,527.99042 296.48357,531.04884 C 332.64483,532.1573 335.52314,509.99585 342.13132,488.49379 C 346.69018,471.64064 337.17411,429.02732 318.40853,452.43344 C 312.63049,460.51203 310.10227,480.46632 305.46158,476.39568 C 300.80786,472.31362 308.49884,442.65101 324.72484,435.52064 C 345.13461,439.72766 352.98185,465.06482 349.73433,483.53211 C 346.13297,503.37786 340.35467,529.85376 317.33392,534.9684 C 297.39826,539.4688 273.10191,538.96981 261.70234,520.09955 C 246.89234,499.88314 243.26641,474.54081 235.98473,451.25342 C 226.04055,427.03228 211.1331,453.83229 209.73744,467.51385 C 198.94419,493.49395 188.27782,521.88893 165.86391,540.16475 C 140.92636,551.56473 111.95641,551.93068 85.092406,548.75241 C 80.313229,540.64033 107.29044,543.84078 115.26922,542.70814 C 134.14052,542.63092 156.32615,541.81017 169.55011,525.48418 C 190.06647,501.21287 201.52935,470.61599 211.65441,440.88678 C 220.66011,423.49715 203.31288,421.16284 194.59082,433.67535 C 170.09851,454.46539 149.55499,482.82288 117.85128,493.06538 C 98.070883,501.34791 77.967668,493.09485 64.535563,477.69489 C 48.801076,460.65673 47.458339,428.44205 70.783228,425.7052 C 83.345274,423.80588 92.197104,434.95586 90.292811,436.88211 C 87.190884,440.01981 83.943203,435.38769 83.202799,434.71523 C 76.692156,429.57479 48.451945,430.06631 62.764386,464.47781 C 74.783829,484.22756 101.59916,496.31845 122.98338,484.22416 C 152.6012,469.00835 173.7576,442.06082 196.10696,418.17096 C 204.77185,412.2053 210.65823,393.72747 193.99572,403.81038 C 170.30439,413.99949 150.36142,430.9201 126.98804,441.82912 C 109.45879,450.77311 90.313954,467.50613 69.648673,457.69643 C 58.251913,453.83418 29.345189,428.66867 40.256368,429.48765 C 51.167547,430.30664 68.31589,455.20745 89.671193,452.37957 C 115.20278,448.63616 132.85822,427.21594 155.29663,416.30054 C 164.902,408.21749 194.66019,399.48252 192.18017,389.84339 C 170.95622,392.25616 150.07821,397.98231 128.51327,396.14628 C 105.94419,397.92914 77.768312,395.74551 66.259732,372.81511 C 56.146179,351.81448 55.205145,326.24749 62.179085,304.18287 C 70.32928,282.20749 112.33257,302.72039 110.21778,305.70034 C 105.89436,314.80924 76.714633,288.09045 68.664489,307.71215 C 65.288291,325.77045 66.691222,345.24004 71.65229,362.9886 C 76.248605,382.21519 96.489621,391.36079 114.8669,390.23327 C 145.25627,388.30227 175.91072,383.84201 205.00604,374.62851 C 213.63859,371.16202 224.87834,366.50797 226.19124,355.93124 z"
       style="fill:#380052;fill-opacity:1;fill-rule:nonzero;stroke:none;stroke-width:1px;stroke-linecap:butt;stroke-linejoin:miter;stroke-opacity:1"
       id="path1307" />
    <path
       d="M 242.9745,279.73822 C 242.97573,294.70482 239.25795,306.83978 234.67141,306.83978 C 230.08488,306.83978 226.3671,294.70482 226.36833,279.73822 C 226.3671,264.77162 230.08488,252.63666 234.67142,252.63666 C 239.25795,252.63666 242.97573,264.77162 242.9745,279.73822 z"
       transform="translate(-0.991338,0)"
       style="fill:#ffffff;fill-opacity:1;fill-rule:nonzero"
       id="path3929" />
    <path
       d="M 277.93485,280.17523 C 277.93631,295.38359 274.02281,307.71484 269.19476,307.71484 C 264.36671,307.71484 260.45321,295.38359 260.45467,280.17523 C 260.45321,264.96687 264.36671,252.63562 269.19476,252.63562 C 274.02281,252.63562 277.93631,264.96687 277.93485,280.17523 L 277.93485,280.17523 z"
       style="fill:#ffffff;fill-opacity:1;fill-rule:nonzero"
       id="path4804" />
    <path
       d="M 235.98243,281.04926 C 235.98364,282.76842 235.56744,284.35812 234.89089,285.21847 C 234.21435,286.07881 233.38047,286.07881 232.70393,285.21847 C 232.02738,284.35812 231.61118,282.76842 231.61239,281.04926 C 231.61118,279.3301 232.02738,277.7404 232.70393,276.88005 C 233.38047,276.01971 234.21435,276.01971 234.89089,276.88005 C 235.56744,277.7404 235.98364,279.3301 235.98243,281.04926 z"
       transform="matrix(2.156928,0,0,1,-270.4371,-0.396535)"
       style="fill:#000000;fill-opacity:1;fill-rule:nonzero"
       id="path4806" />
    <path
       d="M 235.98243,281.04926 C 235.98364,282.76842 235.56744,284.35812 234.89089,285.21847 C 234.21435,286.07881 233.38047,286.07881 232.70393,285.21847 C 232.02738,284.35812 231.61118,282.76842 231.61239,281.04926 C 231.61118,279.3301 232.02738,277.7404 232.70393,276.88005 C 233.38047,276.01971 234.21435,276.01971 234.89089,276.88005 C 235.56744,277.7404 235.98364,279.3301 235.98243,281.04926 z"
       transform="matrix(2.156928,0,0,1,-235.0367,-0.245757)"
       style="fill:#000000;fill-opacity:1;fill-rule:nonzero"
       id="path5683" />
  </g>
</svg>
